<svg width="100" height="100" viewBox="0 0 100 100" fill="none" xmlns="http://www.w3.org/2000/svg">
  <defs>
    <linearGradient id="broomGradient" x1="0" y1="0" x2="100" y2="100" gradientUnits="userSpaceOnUse">
      <stop stop-color="#2C5F2D"/>
      <stop offset="1" stop-color="#97BC62"/>
    </linearGradient>
  </defs>
  
  <rect width="100" height="100" rx="25" fill="#1a2e1a" />
  <circle cx="50" cy="50" r="45" stroke="url(#broomGradient)" stroke-width="2" fill="white" fill-opacity="0.05" />

  <!-- Broom Handle -->
  <rect x="58" y="20" width="6" height="40" rx="3" transform="rotate(45 58 20)" fill="white" />
  
  <!-- Broom head -->
  <path d="M42 45L25 70C23 73 25 78 30 78H55C60 78 62 73 60 70L42 45Z" fill="url(#broomGradient)" />
  
  <!-- Bristle lines -->
  <path d="M34 78V72" stroke="white" stroke-width="1.5" stroke-linecap="round" />
  <path d="M42 78V70" stroke="white" stroke-width="1.5" stroke-linecap="round" />
  <path d="M50 78V72" stroke="white" stroke-width="1.5" stroke-linecap="round" />

  <!-- Magic sparkles -->
  <path d="M75 35L77 29L83 27L77 25L75 19L73 25L67 27L73 29L75 35Z" fill="#97BC62" />
  <path d="M85 55L86 52L89 51L86 50L85 47L84 50L81 51L84 52L85 55Z" fill="white" />
</svg>
